<mxfile host="65bd71144e" scale="1" border="20">
    <diagram id="CX3G9Xh7dB3GCvSDx5av" name="第 1 页">
        <mxGraphModel dx="967" dy="571" grid="0" gridSize="10" guides="1" tooltips="1" connect="1" arrows="1" fold="1" page="1" pageScale="1" pageWidth="1169" pageHeight="827" background="#ffffff" math="0" shadow="0">
            <root>
                <mxCell id="0"/>
                <mxCell id="1" parent="0"/>
                <mxCell id="233" style="edgeStyle=none;html=1;exitX=1;exitY=0.5;exitDx=0;exitDy=0;entryX=0;entryY=0.5;entryDx=0;entryDy=0;fontSize=16;strokeColor=#000000;fontColor=#000000;strokeWidth=1;" parent="1" source="229" target="232" edge="1">
                    <mxGeometry relative="1" as="geometry"/>
                </mxCell>
                <mxCell id="229" value="&lt;font style=&quot;font-size: 16px;&quot;&gt;教师随机分配题目&lt;/font&gt;" style="rounded=0;whiteSpace=wrap;html=1;fillColor=#FFFFFF;strokeColor=#000000;fontColor=#000000;strokeWidth=1;" parent="1" vertex="1">
                    <mxGeometry x="359" y="262" width="145" height="60" as="geometry"/>
                </mxCell>
                <mxCell id="245" value="" style="edgeStyle=none;html=1;fontColor=#000000;strokeColor=#000000;strokeWidth=1;" parent="1" source="232" target="244" edge="1">
                    <mxGeometry relative="1" as="geometry"/>
                </mxCell>
                <mxCell id="232" value="&lt;span style=&quot;&quot;&gt;获取题目ID数组&lt;/span&gt;" style="rounded=0;whiteSpace=wrap;html=1;fillColor=#FFFFFF;strokeColor=#000000;fontColor=#000000;strokeWidth=1;" parent="1" vertex="1">
                    <mxGeometry x="598.5" y="263" width="131" height="59" as="geometry"/>
                </mxCell>
                <mxCell id="234" value="&lt;p class=&quot;MsoNormal&quot;&gt;&lt;span&gt;&lt;font face=&quot;Calibri&quot;&gt;题目数量&lt;/font&gt;&lt;/span&gt;&lt;/p&gt;" style="text;whiteSpace=wrap;html=1;fontSize=16;fontColor=#000000;strokeWidth=1;" parent="1" vertex="1">
                    <mxGeometry x="512" y="245" width="77" height="58" as="geometry"/>
                </mxCell>
                <mxCell id="235" value="数据库" style="shape=cylinder3;whiteSpace=wrap;html=1;boundedLbl=1;backgroundOutline=1;size=15;fontSize=16;fontColor=#000000;fillColor=#FFFFFF;strokeColor=#000000;strokeWidth=1;" parent="1" vertex="1">
                    <mxGeometry x="835" y="255.06" width="63" height="75.88" as="geometry"/>
                </mxCell>
                <mxCell id="239" value="" style="shape=flexArrow;endArrow=classic;startArrow=classic;html=1;strokeColor=#000000;fontSize=16;fontColor=#000000;entryX=0;entryY=0.5;entryDx=0;entryDy=0;entryPerimeter=0;exitX=1;exitY=0.5;exitDx=0;exitDy=0;strokeWidth=1;" parent="1" source="232" target="235" edge="1">
                    <mxGeometry width="100" height="100" relative="1" as="geometry">
                        <mxPoint x="740" y="364" as="sourcePoint"/>
                        <mxPoint x="840" y="264" as="targetPoint"/>
                    </mxGeometry>
                </mxCell>
                <mxCell id="242" style="edgeStyle=none;html=1;exitX=0;exitY=0.5;exitDx=0;exitDy=0;entryX=0.077;entryY=0.5;entryDx=0;entryDy=0;entryPerimeter=0;fontColor=#000000;strokeWidth=1;" parent="1" source="234" target="234" edge="1">
                    <mxGeometry relative="1" as="geometry"/>
                </mxCell>
                <mxCell id="247" value="" style="edgeStyle=none;html=1;strokeColor=#000000;fontColor=#000000;strokeWidth=1;" parent="1" source="244" target="246" edge="1">
                    <mxGeometry relative="1" as="geometry"/>
                </mxCell>
                <mxCell id="244" value="打乱题目ID数组" style="whiteSpace=wrap;html=1;rounded=0;fillColor=#FFFFFF;strokeColor=#000000;fontColor=#000000;strokeWidth=1;" parent="1" vertex="1">
                    <mxGeometry x="604" y="365" width="120" height="60" as="geometry"/>
                </mxCell>
                <mxCell id="254" value="" style="edgeStyle=none;html=1;strokeColor=#000000;fontColor=#000000;strokeWidth=1;" edge="1" parent="1" source="246" target="253">
                    <mxGeometry relative="1" as="geometry"/>
                </mxCell>
                <mxCell id="246" value="截取指定题目数量题目&amp;nbsp;" style="whiteSpace=wrap;html=1;rounded=0;fillColor=#FFFFFF;strokeColor=#000000;fontColor=#000000;strokeWidth=1;" parent="1" vertex="1">
                    <mxGeometry x="604" y="464" width="120" height="60" as="geometry"/>
                </mxCell>
                <mxCell id="250" style="edgeStyle=none;html=1;exitX=1;exitY=0.5;exitDx=0;exitDy=0;exitPerimeter=0;entryX=0;entryY=0.5;entryDx=0;entryDy=0;strokeColor=#000000;fontColor=#000000;strokeWidth=1;" edge="1" parent="1" source="248" target="229">
                    <mxGeometry relative="1" as="geometry"/>
                </mxCell>
                <mxCell id="248" value="开始" style="strokeWidth=1;html=1;shape=mxgraph.flowchart.terminator;whiteSpace=wrap;fillColor=#FFFFFF;strokeColor=#000000;fontColor=#000000;" vertex="1" parent="1">
                    <mxGeometry x="217" y="262" width="100" height="60" as="geometry"/>
                </mxCell>
                <mxCell id="256" style="edgeStyle=none;html=1;exitX=0.5;exitY=1;exitDx=0;exitDy=0;entryX=0.5;entryY=0;entryDx=0;entryDy=0;entryPerimeter=0;strokeColor=#000000;fontColor=#000000;strokeWidth=1;" edge="1" parent="1" source="253" target="255">
                    <mxGeometry relative="1" as="geometry"/>
                </mxCell>
                <mxCell id="253" value="返回题目数据给前端" style="whiteSpace=wrap;html=1;rounded=0;fillColor=#FFFFFF;strokeColor=#000000;fontColor=#000000;strokeWidth=1;" vertex="1" parent="1">
                    <mxGeometry x="604" y="569" width="120" height="60" as="geometry"/>
                </mxCell>
                <mxCell id="255" value="结束" style="strokeWidth=1;html=1;shape=mxgraph.flowchart.terminator;whiteSpace=wrap;fillColor=#FFFFFF;strokeColor=#000000;fontColor=#000000;" vertex="1" parent="1">
                    <mxGeometry x="614" y="674" width="100" height="60" as="geometry"/>
                </mxCell>
            </root>
        </mxGraphModel>
    </diagram>
</mxfile>